<?xml version="1.0" encoding="utf-8"?>
<!-- Generator: Adobe Illustrator 20.1.0, SVG Export Plug-In . SVG Version: 6.00 Build 0)  -->
<svg version="1.1" id="Layer_1" xmlns="http://www.w3.org/2000/svg" xmlns:xlink="http://www.w3.org/1999/xlink" x="0px" y="0px"
	 viewBox="0 0 220.4 220.4" style="enable-background:new 0 0 220.4 220.4;" xml:space="preserve">
<style type="text/css">
	.st0{fill:#01AAED;}
</style>
<g>
	<g>
		<path class="st0" d="M110.2,220.4C49.4,220.4,0,171,0,110.2C0,49.4,49.4,0,110.2,0C171,0,220.4,49.4,220.4,110.2
			C220.4,171,171,220.4,110.2,220.4z M110.2,5C52.2,5,5,52.2,5,110.2c0,58,47.2,105.2,105.2,105.2c58,0,105.2-47.2,105.2-105.2
			C215.4,52.2,168.2,5,110.2,5z"/>
	</g>
</g>
<g>
	<g>
		<path class="st0" d="M110.2,38.6c-39.6,0-71.6,32.1-71.6,71.6c0,39.6,32.1,71.6,71.6,71.6c39.5,0,71.6-32.1,71.6-71.6
			C181.8,70.7,149.8,38.6,110.2,38.6z M113.7,169.4v-9.3h-7v9.3c-31-1.8-54.2-25.3-55.7-57.3h9.7v-6h-9.6c2-30,26.6-53.3,55.6-55v10
			h7v-10c29,1.7,53.6,25,55.6,55h-9.6v6h9.7C167.9,144.1,144.7,167.6,113.7,169.4z"/>
	</g>
	<g>
		<path class="st0" d="M122.8,71.6l-11.8,31c-0.3,0-0.5,0-0.8,0c-4.2,0-7.6,3.4-7.6,7.6c0,1.1,0.2,2.1,0.6,3l-11.4,11.4l4.1,4.1
			l11.4-11.4c0.9,0.4,1.9,0.6,3,0.6c4.2,0,7.6-3.4,7.6-7.6c0-2.6-1.3-4.9-3.2-6.2l11.8-31.1L122.8,71.6z"/>
	</g>
</g>
</svg>
