<?xml version="1.0" encoding="utf-8"?>
<!-- Generator: Adobe Illustrator 20.1.0, SVG Export Plug-In . SVG Version: 6.00 Build 0)  -->
<svg version="1.1" id="Layer_1" xmlns="http://www.w3.org/2000/svg" xmlns:xlink="http://www.w3.org/1999/xlink" x="0px" y="0px"
	 viewBox="0 0 220.4 220.4" style="enable-background:new 0 0 220.4 220.4;" xml:space="preserve">
<style type="text/css">
	.st0{fill:#01AAED;}
</style>
<g>
	<g>
		<path class="st0" d="M110.2,220.4C49.4,220.4,0,171,0,110.2S49.4,0,110.2,0C171,0,220.4,49.4,220.4,110.2S171,220.4,110.2,220.4z
			 M110.2,5C52.2,5,5,52.2,5,110.2s47.2,105.2,105.2,105.2c58,0,105.2-47.2,105.2-105.2S168.2,5,110.2,5z"/>
	</g>
</g>
<g>
	<path class="st0" d="M157.9,102L117.6,61c-4.1-7.1-10.8-7.2-14.9-0.1l-40.3,41.2c-4.1,7.1-0.7,12.2,7.4,12.2h3.7v37.1
		c0,5.6,4.8,9.9,10.4,9.9h20.6v-21h14v21h18.7c5.6,0,10.3-4.3,10.3-9.9v-37.1h3C158.7,114.3,162,109.1,157.9,102z"/>
</g>
</svg>
