<?xml version="1.0" encoding="utf-8"?>
<!-- Generator: Adobe Illustrator 20.1.0, SVG Export Plug-In . SVG Version: 6.00 Build 0)  -->
<svg version="1.1" id="Layer_1" xmlns="http://www.w3.org/2000/svg" xmlns:xlink="http://www.w3.org/1999/xlink" x="0px" y="0px"
	 viewBox="0 0 220.4 220.4" style="enable-background:new 0 0 220.4 220.4;" xml:space="preserve">
<style type="text/css">
	.st0{fill:#01AAED;}
</style>
<g>
	<g>
		<path class="st0" d="M110.2,220.4C49.4,220.4,0,171,0,110.2C0,49.4,49.4,0,110.2,0C171,0,220.4,49.4,220.4,110.2
			C220.4,171,171,220.4,110.2,220.4z M110.2,5C52.2,5,5,52.2,5,110.2c0,58,47.2,105.2,105.2,105.2c58,0,105.2-47.2,105.2-105.2
			C215.4,52.2,168.2,5,110.2,5z"/>
	</g>
</g>
<g>
	<g>
		<g>
			<path class="st0" d="M140.5,167.7L140.5,167.7l-13.9-23.5c-1.1-1.8-3.4-2.4-5.2-1.3l-7.6,6c-3.7,1.6-6.9-2.1-12.7-9.9l-11.8-20
				c-2.3-5.1-4.2-10.3-0.6-12.8l8.6-4.2v0c1.9-1.1,2.3-3.5,1.3-5.2v0L84.9,73.4c-1.1-1.8-3.4-2.4-5.1-1.3L72,77.8
				c-4.6,3.8-16,21.5,6.7,61c23.6,40.9,46,40.7,51.7,38l8.8-3.9v0C141.1,171.7,141.6,169.4,140.5,167.7z"/>
		</g>
	</g>
	<g>
		<g>
			<path class="st0" d="M129.3,99.5C129.3,99.5,129.3,99.5,129.3,99.5c-2.3-0.5-3.8-2.8-3.2-5.1l0.1-0.3
				c4.3-18.9-7.6-37.9-26.5-42.3c-2.3-0.5-3.7-2.9-3.2-5.2c0.5-2.3,2.8-3.8,5.1-3.2c0,0,0,0,0,0c23.5,5.3,38.2,29.1,32.9,52.6
				c0,0.1-0.1,0.2-0.1,0.4C133.9,98.5,131.6,100,129.3,99.5z"/>
		</g>
		<g>
			<path class="st0" d="M114.3,96.1C114.3,96.1,114.2,96.1,114.3,96.1c-2.4-0.5-3.8-2.9-3.2-5.2l0.1-0.2c2.4-10.7-4.3-21.4-14.9-24
				c-2.3-0.6-3.7-2.9-3.2-5.2c0.5-2.3,2.9-3.7,5.2-3.2c15.1,3.6,24.7,18.9,21.3,34.1c0,0.1-0.1,0.2-0.1,0.4
				C118.8,95.2,116.6,96.6,114.3,96.1z"/>
		</g>
	</g>
</g>
</svg>
