<?xml version="1.0" encoding="utf-8"?>
<!-- Generator: Adobe Illustrator 20.1.0, SVG Export Plug-In . SVG Version: 6.00 Build 0)  -->
<svg version="1.1" id="Layer_1" xmlns="http://www.w3.org/2000/svg" xmlns:xlink="http://www.w3.org/1999/xlink" x="0px" y="0px"
	 viewBox="0 0 708.1 234.6" style="enable-background:new 0 0 708.1 234.6;" xml:space="preserve">
<style type="text/css">
	.st0{fill:#2874CD;}
	.st1{fill:url(#SVGID_1_);stroke:url(#SVGID_2_);stroke-width:0.8517;stroke-miterlimit:10;}
	.st2{fill:#FFFFFF;}
	.st3{fill:#303030;}
</style>
<g>
	<polygon class="st0" points="582.1,85.4 582.1,109 558.7,109 	"/>
	
		<linearGradient id="SVGID_1_" gradientUnits="userSpaceOnUse" x1="508.0625" y1="209.8884" x2="673.4375" y2="44.5133" gradientTransform="matrix(1 0 0 -1 0 244.5017)">
		<stop  offset="0" style="stop-color:#01AAED"/>
		<stop  offset="1" style="stop-color:#005AA0"/>
	</linearGradient>
	
		<linearGradient id="SVGID_2_" gradientUnits="userSpaceOnUse" x1="473.3492" y1="127.2008" x2="708.1259" y2="127.2008" gradientTransform="matrix(1 0 0 -1 0 244.5017)">
		<stop  offset="0" style="stop-color:#01AAED"/>
		<stop  offset="1" style="stop-color:#005AA0"/>
	</linearGradient>
	<path class="st1" d="M704.4,133.6l-9.8,23.6l-12,29.1c-4.3,10.4-12.6,18.7-23,23L632,220.7L607,231c-10.4,4.3-22.2,4.3-32.6,0
		l-52.6-21.7c-10.4-4.3-18.7-12.6-23-23L477,133.7c-4.3-10.4-4.3-22.2,0-32.6l21.8-52.6c4.3-10.4,12.6-18.7,23-23l52.6-21.8
		c10.4-4.3,22.2-4.3,32.6,0l52.6,21.6c10.4,4.3,18.7,12.6,23,23l21.8,52.6C708.8,111.4,708.8,123.2,704.4,133.6z"/>
	<path class="st2" d="M643.9,112v10.6c0,2.9-1.9,5.3-4.3,5.3h-97.9c-2.4,0-4.3-2.4-4.3-5.3V112c0-2.9,1.9-5.3,4.3-5.3h97.9
		C642,106.7,643.9,109,643.9,112z"/>
	<path class="st2" d="M601.3,68.3v98c0,2.4-2.4,4.3-5.3,4.3h-10.6c-2.9,0-5.3-1.9-5.3-4.3v-98c0-2.4,2.4-4.3,5.3-4.3H596
		C598.9,64.1,601.3,66,601.3,68.3z"/>
</g>
<g>
	<g>
		<g>
			<path class="st3" d="M152.1,47.9c2.5,2.6,3.8,5.7,3.8,9.3v119.4c0,2.5-0.9,4.7-2.6,6.4c-1.7,1.7-3.9,2.6-6.4,2.6
				s-4.7-0.9-6.5-2.6s-2.7-3.9-2.7-6.4V63L91.5,177.2c-1.1,2.5-2.7,4.6-5,6.1s-4.9,2.3-7.8,2.3s-5.5-0.8-7.8-2.3s-3.9-3.6-5-6.1
				L19.7,63v113.6c0,2.5-0.9,4.7-2.7,6.4s-4,2.6-6.5,2.6s-4.7-0.9-6.4-2.6c-1.7-1.7-2.6-3.9-2.6-6.4V57.2c0-3.6,1.3-6.7,3.8-9.3
				s5.6-3.9,9.2-3.9h6.6c2.7,0,5.1,0.8,7.3,2.4c2.2,1.6,3.8,3.6,4.9,6l45.4,113.2l45.4-113.2c1.1-2.4,2.7-4.4,4.9-6s4.6-2.4,7.3-2.4
				h6.6C146.5,44,149.6,45.3,152.1,47.9z"/>
			<path class="st3" d="M146.9,187.1c-2.9,0-5.5-1-7.5-3c-2.1-2-3.2-4.5-3.2-7.5V70.7L92.9,177.8c-1.2,2.8-3.1,5.1-5.6,6.8
				s-5.4,2.6-8.6,2.6s-6.1-0.9-8.6-2.6c-2.5-1.7-4.4-4-5.5-6.8L21.2,70.7v105.9c0,2.9-1.1,5.5-3.2,7.5c-2.1,2-4.6,3-7.5,3
				s-5.4-1-7.5-3c-2-2-3-4.5-3-7.5V57.2c0-4,1.4-7.5,4.2-10.3c2.8-2.9,6.3-4.4,10.3-4.4h6.6c3,0,5.7,0.9,8.2,2.7
				c2.4,1.7,4.2,4,5.4,6.6l44,109.8l44-109.7c1.2-2.7,3-4.9,5.4-6.7c2.5-1.8,5.2-2.7,8.2-2.7h6.6c4,0,7.5,1.5,10.3,4.4l0,0
				c2.8,2.9,4.2,6.4,4.2,10.3v119.4c0,2.9-1,5.4-3,7.5C152.4,186.1,149.9,187.1,146.9,187.1z M139.2,55.3v121.3
				c0,2.1,0.7,3.9,2.2,5.3c1.5,1.5,3.3,2.2,5.5,2.2c2.1,0,3.9-0.7,5.3-2.2c1.5-1.5,2.2-3.2,2.2-5.3V57.2c0-3.2-1.1-5.9-3.4-8.3
				c-2.3-2.3-4.9-3.4-8.1-3.4h-6.6c-2.4,0-4.5,0.7-6.4,2.1c-2,1.4-3.5,3.3-4.4,5.4L78.7,169.6L31.9,53c-0.9-2.1-2.4-3.9-4.4-5.3
				c-2-1.4-4.1-2.1-6.4-2.1h-6.6c-3.2,0-5.9,1.1-8.1,3.4C4.1,51.3,3,54,3,57.3v119.4c0,2.1,0.7,3.9,2.2,5.3c1.5,1.5,3.2,2.2,5.3,2.2
				s3.9-0.7,5.5-2.2c1.5-1.4,2.2-3.2,2.2-5.3V55.3l49.1,121.3c1,2.3,2.4,4,4.4,5.4s4.3,2,7,2c2.6,0,4.9-0.7,7-2
				c2-1.4,3.5-3.2,4.5-5.4L139.2,55.3z"/>
		</g>
		<g>
			<path class="st3" d="M210.9,161.6c5.7,5.3,13.7,8,24,8s18.9-1.7,25.8-5.2c2.4-1.2,4.5-1.8,6.2-1.8s3.4,0.7,5,2.2s2.4,3.1,2.4,5
				c0,3.5-1.4,6-4.3,7.5s-5.4,2.8-7.7,3.9c-2.3,1.1-4.7,2-7.4,2.8c-6,1.7-12.9,2.6-20.8,2.6c-16.4,0-29.1-4.6-38.2-13.8
				c-9.1-9.2-13.6-22.3-13.6-39.2c0-14.7,3.8-26.9,11.4-36.6c8.5-10.9,20.7-16.4,36.4-16.4c14.9,0,26.7,5.1,35.4,15.2
				c8.1,9.5,12.2,21.2,12.2,35.2c0,2.5-0.8,4.7-2.5,6.4s-3.9,2.6-6.7,2.6h-67.8C201.8,149.1,205.2,156.3,210.9,161.6z M230.1,96
				c-11.9,0-20.5,5.3-26,15.8c-2,3.7-3.1,8.2-3.4,13.4h59c-0.5-9.5-4-16.9-10.4-22.4C244,98.3,237.6,96,230.1,96z"/>
			<path class="st3" d="M234.1,188.1c-16.7,0-30-4.8-39.3-14.2s-14-23-14-40.3c0-14.9,3.9-27.6,11.7-37.5c8.8-11.3,21.4-17,37.6-17
				c15.3,0,27.6,5.3,36.5,15.7c8.3,9.7,12.6,21.9,12.6,36.2c0,2.9-1,5.4-2.9,7.4c-2,2-4.6,3.1-7.8,3.1h-66.1
				c1.2,7.9,4.4,14.3,9.5,19l0,0c5.4,5,13.1,7.6,23,7.6c10,0,18.4-1.7,25.1-5c2.6-1.3,4.9-2,6.9-2c2.1,0,4.1,0.9,6,2.6
				c1.9,1.8,2.9,3.8,2.9,6.1c0,4-1.7,7-5.1,8.8c-2.9,1.5-5.5,2.9-7.8,3.9c-2.3,1.1-4.9,2.1-7.6,2.9
				C249.2,187.2,242.1,188.1,234.1,188.1z M230.1,82.1c-15.2,0-27,5.3-35.2,15.8c-7.4,9.4-11.1,21.4-11.1,35.7
				c0,16.4,4.4,29.3,13.2,38.1c8.7,8.9,21.2,13.4,37.1,13.4c7.7,0,14.5-0.9,20.4-2.5c2.6-0.8,5-1.7,7.2-2.7s4.8-2.3,7.6-3.9
				c2.4-1.3,3.5-3.3,3.5-6.2c0-1.4-0.6-2.7-1.9-3.9s-2.6-1.8-4-1.8c-1.5,0-3.4,0.6-5.5,1.6c-7.1,3.6-16,5.4-26.5,5.4
				c-10.6,0-19-2.8-25-8.4l0,0c-6-5.6-9.6-13.1-10.7-22.5l-0.2-1.7h69.5c2.4,0,4.2-0.7,5.6-2.1c1.4-1.5,2.1-3.2,2.1-5.4
				c0-13.6-4-25.1-11.8-34.2C256.1,87,244.5,82.1,230.1,82.1z M261.3,126.7h-62.2l0.1-1.6c0.3-5.4,1.5-10.1,3.6-14
				c5.7-11,14.9-16.6,27.3-16.6c7.8,0,14.6,2.4,20.2,7.2c6.7,5.7,10.4,13.6,10.9,23.5L261.3,126.7z M202.3,123.7h55.8
				c-0.8-8.3-4.1-14.9-9.8-19.8c-5-4.3-11.2-6.4-18.2-6.4c-11.4,0-19.4,4.9-24.7,15C203.8,115.6,202.7,119.4,202.3,123.7z"/>
		</g>
		<g>
			<path class="st3" d="M378.7,171.4c-9.9,10.1-21.3,15.2-34.2,15.2c-12.8,0-23.9-4.5-33.2-13.6c-10.1-10-15.2-23.1-15.2-39.4
				c0-16,5.1-29.1,15.2-39.2c9.2-9.2,20.3-13.8,33.2-13.8c12.9,0,24.3,5.1,34.2,15.2v-49c0-2.7,0.9-4.9,2.6-6.6
				c1.7-1.7,3.9-2.6,6.5-2.6s4.8,0.9,6.5,2.6c1.7,1.7,2.6,3.9,2.6,6.6v129.8c0,2.5-0.9,4.7-2.6,6.4s-3.9,2.6-6.5,2.6
				s-4.8-0.9-6.5-2.6c-1.7-1.7-2.6-3.9-2.6-6.4V171.4z M378.7,112.6c-9.1-10-19.6-15-31.6-15c-15.2,0-25.3,6.8-30.2,20.4
				c-1.7,4.5-2.6,9.7-2.6,15.6c0,11.5,3.1,20.5,9.4,27c5.7,6,13.5,9,23.4,9c12,0,22.5-5,31.6-15L378.7,112.6L378.7,112.6z"/>
			<path class="st3" d="M344.5,188.1c-13.1,0-24.7-4.7-34.2-14c-10.4-10.3-15.7-23.9-15.7-40.5c0-16.3,5.3-29.9,15.6-40.3
				c9.4-9.4,21-14.2,34.3-14.2c12.2,0,23.2,4.4,32.7,13.2V46.8c0-3.1,1-5.6,3-7.7c2-2,4.6-3,7.6-3s5.5,1,7.6,3c2,2,3,4.6,3,7.7
				v129.8c0,2.9-1,5.4-3,7.5c-2,2-4.6,3-7.6,3s-5.5-1-7.6-3c-2-2-3-4.5-3-7.5v-1.7C367.7,183.7,356.7,188.1,344.5,188.1z
				 M344.5,82.1c-12.5,0-23.3,4.5-32.1,13.4c-9.8,9.8-14.8,22.6-14.8,38.1c0,15.8,5,28.7,14.8,38.3c9,8.7,19.8,13.2,32.1,13.2
				c12.5,0,23.6-5,33.1-14.7l2.6-2.6v8.9c0,2.1,0.7,3.9,2.2,5.3c1.5,1.5,3.2,2.2,5.4,2.2c2.2,0,4-0.7,5.4-2.2
				c1.5-1.5,2.2-3.2,2.2-5.3V46.8c0-2.3-0.7-4.1-2.2-5.5c-1.5-1.5-3.2-2.2-5.4-2.2c-2.2,0-4,0.7-5.4,2.2c-1.5,1.5-2.2,3.3-2.2,5.5
				v52.7l-2.6-2.6C368.1,87.1,357,82.1,344.5,82.1z M347.1,171.1c-10.2,0-18.5-3.2-24.5-9.5c-6.5-6.8-9.8-16.2-9.8-28
				c0-6,0.9-11.5,2.7-16.1c5.1-14.2,15.8-21.4,31.6-21.4c12.4,0,23.4,5.2,32.7,15.5l0.4,0.4v43.2l-0.4,0.4
				C370.5,165.9,359.5,171.1,347.1,171.1z M347.1,99.1c-14.6,0-24.1,6.3-28.8,19.4c-1.7,4.4-2.5,9.4-2.5,15.1c0,11,3,19.8,9,26
				c5.4,5.7,12.9,8.5,22.3,8.5c11.3,0,21.5-4.7,30.1-14.1v-40.8C368.6,103.8,358.5,99.1,347.1,99.1z"/>
		</g>
	</g>
</g>
</svg>
